# xmcd
#
# Track frame offsets:
#	150
#	13663
#	28149
#	45949
#	65441
#	86813
#	102658
#	119913
#	134150
#	150115
#	166387
#	180169
#	195241
#
# Disc length: 2802 seconds
#
# Revision: 1
# Processed by: cddbd v1.5.2PL0 Copyright (c) Steve Scherf et al.
# Submitted via: audiograbber 1.83.01
#
DISCID=a80af00d
DTITLE=Adam Brand - It's Gonna Be OK
DYEAR=2010
DGENRE=Country
TTITLE0=It's Gonna Be OK
TTITLE1=Kiss You Back
TTITLE2=Dance With Me
TTITLE3=The Worm
TTITLE4=Unafraid To Love
TTITLE5=I Surrender
TTITLE6=The Reason I Come Home
TTITLE7=Gettin' Good
TTITLE8=Greatest Love Song
TTITLE9=You Came True
TTITLE10=Lie Lie Lie
TTITLE11=That's Everything
TTITLE12=Beautiful Excuses
EXTD=
EXTT0=
EXTT1=
EXTT2=
EXTT3=
EXTT4=
EXTT5=
EXTT6=
EXTT7=
EXTT8=
EXTT9=
EXTT10=
EXTT11=
EXTT12=
PLAYORDER=
